<?xml version="1.0" encoding="utf-8"?>
<svg version="1.2" baseProfile="tiny-ps" id="Layer_1" xmlns="http://www.w3.org/2000/svg" xmlns:xlink="http://www.w3.org/1999/xlink" viewBox="0 0 405 405" xml:space="preserve">
<title>BeyondTrust</title>
<g>
	<path fill="#FF5500" d="M296.8,179.4L274,156.6c-0.1-0.1-0.5-0.2-0.7-0.1c-0.2,0.1-0.4,0.4-0.4,0.6V317c0,0.2,0.1,0.5,0.4,0.6
		c0.1,0,0.1,0,0.2,0s0.4-0.1,0.5-0.1l22.8-22.8c0.9-0.9,1.6-2.6,1.6-3.7V183.3C298.4,182.1,297.6,180.3,296.8,179.4"/>
	<g>
		<path fill="#FF5500" d="M255.8,143.3h-80.6c-0.7,0-1.2-0.6-1.2-1.2V74.7c0-0.2-0.1-0.5-0.4-0.6c-0.2-0.1-0.5,0-0.6,0.1L150,97
			c-0.9,0.9-1.6,2.6-1.6,3.7v67.1c0,0.4,0.2,0.6,0.6,0.6h80.6c0.6,0,1.2,0.6,1.2,1.2v12c0,1.7-1.5,3.2-3.2,3.2h-78.5
			c-0.1,0-0.4,0.1-0.5,0.1c-0.1,0.2-0.1,0.4-0.1,0.6v85.6c0,9.8,8.1,17.8,17.8,17.8h61.4c1.7,0,3.2,1.4,3.2,3.2v12
			c0,0.7-0.6,1.2-1.2,1.2h-63.4c-19,0-34.3-15.4-34.3-34.3V116.6c0-0.2-0.1-0.5-0.4-0.6c-0.2-0.1-0.5,0-0.7,0.1l-22.7,22.8
			c-0.9,0.9-1.6,2.6-1.6,3.7v136c0,28.9,23.4,52.3,52.3,52.3h96.9c0.4,0,0.6-0.2,0.6-0.6l0.1-186.4
			C256.5,143.5,256.1,143.3,255.8,143.3z M231,260.6c0,1.7-1.5,3.2-3.2,3.2h-50.7c-1.7,0-3.2-1.4-3.2-3.2v-46.9
			c0-1.7,1.5-3.2,3.2-3.2h50.7c1.7,0,3.2,1.5,3.2,3.2C231,213.6,231,260.6,231,260.6z"/>
	</g>
</g>
</svg>
